<?xml version="1.0" encoding="utf-8"?>
<!-- Generator: Adobe Illustrator 23.0.3, SVG Export Plug-In . SVG Version: 6.00 Build 0)  -->
<svg version="1.1" xmlns="http://www.w3.org/2000/svg" xmlns:xlink="http://www.w3.org/1999/xlink" x="0px" y="0px"
	 viewBox="0 0 237.36 70.93" style="enable-background:new 0 0 237.36 70.93;" xml:space="preserve">
<style type="text/css">
	.st0{fill:#429E3D;}
	.st1{fill:#C6D5E0;}
	.st2{fill:#E27923;}
	.st3{fill:#007497;}
</style>
<g id="Subtext">
	<path class="st0" d="M180.23,55.92c-0.32-0.56-0.85-0.97-1.59-1.24c-0.74-0.27-1.74-0.41-3-0.41h-4.66v1.56h1.56v9.4h-1.56v1.56
		h5.09v-1.56h-1.63V62h1.65c1.68-0.01,2.87-0.37,3.58-1.08c0.7-0.71,1.06-1.64,1.06-2.78C180.72,57.22,180.56,56.48,180.23,55.92
		L180.23,55.92z M178.47,59.54c-0.22,0.35-0.55,0.59-1.01,0.73c-0.46,0.14-1.08,0.21-1.85,0.21h-1.17v-4.65h1.31
		c1.11,0,1.9,0.18,2.36,0.54c0.46,0.36,0.69,0.94,0.69,1.72C178.8,58.71,178.69,59.19,178.47,59.54L178.47,59.54z M185.41,61.16
		c0.15-0.49,0.45-0.86,0.9-1.11c0.45-0.24,1.15-0.37,2.08-0.37h0.37v-1.74h-0.39c-0.96,0-1.71,0.15-2.23,0.46
		c-0.52,0.31-0.95,0.85-1.3,1.63v-1.98h-3.12v1.54h1.76v5.67h-1.76v1.53h5.36v-1.53h-1.9v-1.98
		C185.18,62.36,185.26,61.65,185.41,61.16L185.41,61.16z M197.45,60.19c-0.39-0.76-0.93-1.34-1.62-1.75
		c-0.68-0.41-1.49-0.61-2.41-0.61c-0.84,0-1.61,0.2-2.31,0.59c-0.7,0.4-1.25,0.95-1.65,1.65c-0.4,0.7-0.6,1.49-0.6,2.37
		c0,0.88,0.2,1.67,0.61,2.38c0.41,0.7,0.98,1.25,1.71,1.65s1.57,0.59,2.51,0.59c0.91,0,1.75-0.19,2.52-0.57
		c0.77-0.38,1.4-0.94,1.88-1.68l-1.51-0.68c-0.33,0.49-0.74,0.86-1.24,1.1c-0.49,0.24-1.03,0.36-1.6,0.36c-0.79,0-1.45-0.24-2-0.73
		c-0.54-0.48-0.87-1.15-0.97-1.98h7.33C198.06,61.84,197.85,60.94,197.45,60.19L197.45,60.19z M195.27,59.91
		c0.52,0.44,0.86,1.01,1.02,1.73h-5.47c0.14-0.72,0.45-1.29,0.94-1.73c0.49-0.44,1.06-0.65,1.7-0.65
		C194.14,59.26,194.75,59.48,195.27,59.91L195.27,59.91z M209.23,60.21c-0.36-0.69-0.86-1.24-1.5-1.65
		c-0.64-0.41-1.38-0.61-2.2-0.61c-0.59,0-1.15,0.12-1.67,0.37c-0.52,0.25-1,0.63-1.43,1.14v-1.4h-3.18v1.54h1.46v9.59h-1.58v1.53
		h5.01v-1.53h-1.71v-3.48c0.88,0.9,1.9,1.35,3.07,1.35c0.79,0,1.51-0.21,2.17-0.62c0.65-0.41,1.16-0.97,1.54-1.68
		c0.38-0.71,0.57-1.47,0.57-2.29C209.76,61.66,209.59,60.9,209.23,60.21L209.23,60.21z M203.27,64.71
		c-0.57-0.52-0.86-1.23-0.86-2.14c0-0.57,0.12-1.08,0.36-1.55c0.24-0.47,0.57-0.85,1.01-1.14c0.43-0.29,0.92-0.43,1.46-0.43
		c0.52,0,0.99,0.13,1.4,0.4c0.42,0.27,0.74,0.63,0.98,1.08c0.24,0.45,0.36,0.95,0.36,1.48c0,0.53-0.11,1.04-0.32,1.51
		c-0.22,0.48-0.52,0.85-0.9,1.13c-0.38,0.28-0.81,0.42-1.29,0.42C204.57,65.49,203.84,65.23,203.27,64.71L203.27,64.71z
		 M217.85,58.63c-0.54-0.53-1.4-0.8-2.57-0.8c-0.87,0-1.62,0.17-2.25,0.51c-0.63,0.34-1.13,0.86-1.51,1.55l1.65,0.41
		c0.21-0.34,0.46-0.6,0.78-0.77c0.31-0.17,0.7-0.25,1.17-0.25c0.66,0,1.13,0.15,1.42,0.44c0.29,0.29,0.43,0.78,0.43,1.46v0.94
		c-0.74-0.5-1.53-0.75-2.39-0.75c-0.51,0-1.02,0.12-1.52,0.35c-0.5,0.23-0.9,0.56-1.2,0.99c-0.3,0.43-0.44,0.92-0.44,1.47
		c0,0.51,0.13,0.97,0.4,1.39c0.27,0.42,0.63,0.75,1.07,1c0.45,0.25,0.94,0.37,1.48,0.37c1.02,0,1.95-0.41,2.78-1.22v1.07h2.98v-1.53
		h-1.46v-4.12C218.66,60,218.39,59.16,217.85,58.63L217.85,58.63z M213.49,65.22c-0.29-0.27-0.43-0.62-0.43-1.04
		c0-0.43,0.16-0.79,0.49-1.08c0.33-0.29,0.72-0.43,1.18-0.43c0.75,0,1.5,0.29,2.24,0.87v1.02c-0.74,0.7-1.53,1.06-2.37,1.06
		C214.15,65.63,213.78,65.49,213.49,65.22L213.49,65.22z M224.68,61.16c0.15-0.49,0.45-0.86,0.9-1.11c0.45-0.24,1.15-0.37,2.08-0.37
		h0.37v-1.74h-0.39c-0.96,0-1.71,0.15-2.22,0.46c-0.52,0.31-0.95,0.85-1.3,1.63v-1.98H221v1.54h1.76v5.67H221v1.53h5.36v-1.53h-1.9
		v-1.98C224.46,62.36,224.53,61.65,224.68,61.16L224.68,61.16z M236.72,60.19c-0.39-0.76-0.93-1.34-1.62-1.75
		c-0.69-0.41-1.49-0.61-2.41-0.61c-0.84,0-1.61,0.2-2.31,0.59c-0.7,0.4-1.25,0.95-1.65,1.65c-0.4,0.7-0.6,1.49-0.6,2.37
		c0,0.88,0.2,1.67,0.61,2.38c0.41,0.7,0.98,1.25,1.71,1.65c0.73,0.39,1.57,0.59,2.51,0.59c0.91,0,1.75-0.19,2.52-0.57
		c0.77-0.38,1.4-0.94,1.88-1.68l-1.51-0.68c-0.33,0.49-0.75,0.86-1.24,1.1c-0.49,0.24-1.03,0.36-1.6,0.36
		c-0.79,0-1.45-0.24-1.99-0.73c-0.54-0.48-0.87-1.15-0.97-1.98h7.32C237.33,61.84,237.12,60.94,236.72,60.19L236.72,60.19z
		 M234.54,59.91c0.52,0.44,0.86,1.01,1.02,1.73h-5.47c0.14-0.72,0.45-1.29,0.94-1.73c0.49-0.44,1.06-0.65,1.71-0.65
		C233.42,59.26,234.02,59.48,234.54,59.91L234.54,59.91z"/>
	<polygon class="st1" points="160.53,70.93 160.53,54.01 159.12,54.01 159.12,70.93 160.53,70.93 	"/>
	<path class="st2" d="M84.69,54.06c-1.15,0-2.05,0.3-2.7,0.91c-0.65,0.61-0.98,1.46-0.98,2.57c0,0.9,0.27,1.62,0.81,2.17
		c0.54,0.55,1.37,0.98,2.49,1.31l1.56,0.44c1.26,0.35,1.9,0.97,1.9,1.87c0,0.66-0.19,1.17-0.58,1.53c-0.39,0.36-0.93,0.54-1.64,0.54
		c-1.2,0-2.18-0.69-2.93-2.06v-1.11h-1.56v4.56h1.56v-1.04c0.93,0.83,1.96,1.25,3.1,1.25c1.19,0,2.14-0.33,2.85-1
		c0.71-0.67,1.06-1.57,1.06-2.7c0-0.57-0.08-1.08-0.23-1.54c-0.15-0.46-0.48-0.9-0.98-1.31c-0.5-0.41-1.22-0.74-2.16-0.99
		l-1.47-0.39c-0.72-0.18-1.25-0.4-1.59-0.67c-0.35-0.26-0.52-0.64-0.52-1.14c0-0.52,0.18-0.92,0.55-1.2
		c0.37-0.28,0.89-0.42,1.58-0.42c1.13,0,2.01,0.49,2.66,1.46V58h1.53v-3.8h-1.53v0.86C86.62,54.39,85.69,54.06,84.69,54.06
		L84.69,54.06L84.69,54.06z M94.15,65.14c-0.16-0.21-0.24-0.54-0.24-0.99v-6.09h-2.94v1.54h1.22v4.19c0,1.13,0.2,1.94,0.59,2.43
		c0.39,0.49,1,0.73,1.82,0.73c0.91,0,1.87-0.39,2.88-1.16v1.01h3.22v-1.53h-1.5v-7.21h-3.27v1.54h1.55v4.73
		c-0.9,0.75-1.73,1.12-2.5,1.12C94.59,65.45,94.32,65.35,94.15,65.14L94.15,65.14z M111.54,60.21c-0.36-0.69-0.86-1.24-1.5-1.65
		c-0.64-0.41-1.38-0.61-2.2-0.61c-0.59,0-1.15,0.12-1.67,0.37c-0.52,0.25-1,0.63-1.43,1.14v-1.4h-3.18v1.54h1.46v9.59h-1.58v1.53
		h5.01v-1.53h-1.7v-3.48c0.88,0.9,1.9,1.35,3.07,1.35c0.79,0,1.52-0.21,2.17-0.62c0.65-0.41,1.17-0.97,1.54-1.68
		c0.38-0.71,0.57-1.47,0.57-2.29C112.08,61.66,111.9,60.9,111.54,60.21L111.54,60.21z M105.58,64.71c-0.57-0.52-0.86-1.23-0.86-2.14
		c0-0.57,0.12-1.08,0.36-1.55c0.24-0.47,0.57-0.85,1.01-1.14c0.43-0.29,0.92-0.43,1.46-0.43c0.52,0,0.99,0.13,1.4,0.4
		c0.42,0.27,0.74,0.63,0.98,1.08c0.24,0.45,0.36,0.95,0.36,1.48c0,0.53-0.11,1.04-0.32,1.51c-0.22,0.48-0.52,0.85-0.9,1.13
		c-0.38,0.28-0.81,0.42-1.29,0.42C106.89,65.49,106.16,65.23,105.58,64.71L105.58,64.71z M123.21,60.21
		c-0.36-0.69-0.86-1.24-1.5-1.65c-0.64-0.41-1.38-0.61-2.2-0.61c-0.59,0-1.15,0.12-1.67,0.37c-0.52,0.25-1,0.63-1.43,1.14v-1.4
		h-3.18v1.54h1.46v9.59h-1.58v1.53h5.01v-1.53h-1.71v-3.48c0.88,0.9,1.9,1.35,3.07,1.35c0.79,0,1.51-0.21,2.17-0.62
		c0.65-0.41,1.17-0.97,1.54-1.68c0.38-0.71,0.57-1.47,0.57-2.29C123.74,61.66,123.56,60.9,123.21,60.21L123.21,60.21z M117.24,64.71
		c-0.57-0.52-0.86-1.23-0.86-2.14c0-0.57,0.12-1.08,0.36-1.55c0.24-0.47,0.57-0.85,1.01-1.14c0.43-0.29,0.92-0.43,1.46-0.43
		c0.52,0,0.99,0.13,1.4,0.4c0.42,0.27,0.74,0.63,0.98,1.08c0.24,0.45,0.36,0.95,0.36,1.48c0,0.53-0.11,1.04-0.32,1.51
		c-0.22,0.48-0.51,0.85-0.9,1.13c-0.38,0.28-0.81,0.42-1.29,0.42C118.55,65.49,117.82,65.23,117.24,64.71L117.24,64.71z
		 M133.78,60.14c-0.4-0.7-0.95-1.27-1.65-1.68c-0.7-0.42-1.48-0.63-2.34-0.63c-0.89,0-1.68,0.2-2.38,0.59
		c-0.7,0.4-1.24,0.94-1.63,1.64c-0.39,0.7-0.59,1.49-0.59,2.38c0,0.85,0.2,1.62,0.59,2.33c0.39,0.7,0.94,1.26,1.64,1.67
		c0.7,0.41,1.49,0.62,2.37,0.62c0.85,0,1.62-0.21,2.32-0.62c0.7-0.41,1.25-0.97,1.65-1.67c0.4-0.7,0.61-1.48,0.61-2.33
		C134.38,61.61,134.18,60.85,133.78,60.14L133.78,60.14z M128.39,64.99c-0.43-0.27-0.77-0.63-1.02-1.08
		c-0.24-0.45-0.37-0.94-0.37-1.46c0-0.52,0.12-1.01,0.37-1.46c0.24-0.45,0.58-0.82,1.01-1.09c0.43-0.27,0.9-0.4,1.41-0.4
		c0.52,0,0.99,0.14,1.42,0.41c0.43,0.27,0.76,0.64,1,1.09c0.24,0.45,0.36,0.93,0.36,1.46c0,0.53-0.12,1.02-0.36,1.47
		c-0.24,0.45-0.57,0.81-1,1.07c-0.43,0.27-0.9,0.4-1.41,0.4C129.29,65.39,128.82,65.25,128.39,64.99L128.39,64.99z M139.25,61.16
		c0.15-0.49,0.45-0.86,0.9-1.11c0.45-0.24,1.15-0.37,2.08-0.37h0.37v-1.74h-0.39c-0.96,0-1.71,0.15-2.22,0.46
		c-0.52,0.31-0.95,0.85-1.3,1.63v-1.98h-3.12v1.54h1.75v5.67h-1.75v1.53h5.36v-1.53h-1.9v-1.98
		C139.03,62.36,139.11,61.65,139.25,61.16L139.25,61.16z M146.51,58.06v-2.89l-1.72,1.57v1.32h-1.14v1.54h1.14v4.94
		c0,0.88,0.16,1.5,0.47,1.87c0.32,0.36,0.83,0.54,1.55,0.54c0.33,0,0.76-0.08,1.29-0.23v-1.55c-0.31,0.11-0.61,0.16-0.91,0.16
		c-0.25,0-0.43-0.07-0.53-0.21c-0.1-0.14-0.15-0.45-0.15-0.93V59.6h1.6v-1.54H146.51L146.51,58.06z"/>
	<polygon class="st1" points="69.95,70.93 69.95,54.01 68.54,54.01 68.54,70.93 69.95,70.93 	"/>
	<path class="st3" d="M4.61,55.83v-1.56H0v1.56h1.36v9.4H0v1.56h4.61v-1.56H3.25v-9.4H4.61L4.61,55.83z M13.75,58.67
		c-0.37-0.48-0.95-0.72-1.73-0.72c-0.94,0-1.95,0.39-3.02,1.17v-1.06H5.77v1.54H7.3v5.67H5.77v1.53h4.74v-1.53H9v-4.65
		c0.95-0.75,1.81-1.13,2.58-1.13c0.36,0,0.62,0.12,0.78,0.36c0.16,0.24,0.24,0.63,0.24,1.18v5.77h3.18v-1.53h-1.46v-4.35
		C14.31,59.9,14.13,59.15,13.75,58.67L13.75,58.67z M20.1,57.95c-0.5,0-0.98,0.1-1.46,0.29c-0.47,0.19-0.86,0.48-1.16,0.87
		c-0.3,0.39-0.45,0.85-0.45,1.39c0,0.67,0.21,1.22,0.62,1.65c0.41,0.43,1.06,0.74,1.94,0.91l0.89,0.19c0.77,0.15,1.28,0.3,1.54,0.44
		c0.25,0.14,0.38,0.35,0.38,0.64c0,0.39-0.16,0.68-0.48,0.88c-0.32,0.2-0.76,0.3-1.32,0.3c-0.51,0-0.96-0.13-1.34-0.38
		c-0.39-0.25-0.62-0.59-0.7-1.01v-0.3h-1.53v2.99h1.53v-0.47c0.27,0.18,0.6,0.33,0.99,0.44c0.4,0.12,0.8,0.18,1.21,0.18
		c1.03,0,1.86-0.24,2.48-0.73c0.62-0.49,0.94-1.13,0.94-1.94c0-1.37-0.86-2.22-2.59-2.54l-1.16-0.22c-0.76-0.12-1.26-0.26-1.48-0.42
		c-0.22-0.16-0.33-0.38-0.33-0.67c0-0.32,0.14-0.57,0.43-0.77c0.29-0.2,0.66-0.3,1.11-0.3c0.86,0,1.55,0.36,2.05,1.07v0.53h1.5v-2.9
		h-1.5v0.37C21.65,58.11,20.94,57.95,20.1,57.95L20.1,57.95L20.1,57.95z M35.3,60.21c-0.36-0.69-0.86-1.24-1.5-1.65
		c-0.64-0.41-1.38-0.61-2.2-0.61c-0.59,0-1.15,0.12-1.67,0.37c-0.52,0.25-1,0.63-1.43,1.14v-1.4h-3.18v1.54h1.46v9.59H25.2v1.53
		h5.01v-1.53h-1.7v-3.48c0.88,0.9,1.9,1.35,3.07,1.35c0.79,0,1.51-0.21,2.17-0.62c0.65-0.41,1.17-0.97,1.54-1.68
		c0.38-0.71,0.57-1.47,0.57-2.29C35.84,61.66,35.66,60.9,35.3,60.21L35.3,60.21z M29.34,64.71c-0.57-0.52-0.86-1.23-0.86-2.14
		c0-0.57,0.12-1.08,0.36-1.55c0.24-0.47,0.57-0.85,1.01-1.14c0.43-0.29,0.92-0.43,1.46-0.43c0.52,0,0.99,0.13,1.41,0.4
		c0.42,0.27,0.74,0.63,0.98,1.08c0.24,0.45,0.36,0.95,0.36,1.48c0,0.53-0.11,1.04-0.32,1.51c-0.22,0.48-0.52,0.85-0.9,1.13
		c-0.38,0.28-0.81,0.42-1.29,0.42C30.65,65.49,29.92,65.23,29.34,64.71L29.34,64.71z M39.96,54.38c-0.2-0.2-0.45-0.3-0.74-0.3
		c-0.28,0-0.52,0.1-0.72,0.31c-0.2,0.21-0.3,0.45-0.3,0.73c0,0.28,0.1,0.53,0.3,0.73c0.2,0.21,0.44,0.31,0.72,0.31
		s0.53-0.1,0.73-0.31c0.21-0.21,0.31-0.45,0.31-0.73C40.26,54.83,40.16,54.58,39.96,54.38L39.96,54.38z M40.16,65.27v-7.21h-3.08
		v1.54h1.36v5.67h-1.36v1.53h4.42v-1.53H40.16L40.16,65.27z M46.09,61.16c0.15-0.49,0.45-0.86,0.9-1.11
		c0.45-0.24,1.15-0.37,2.08-0.37h0.37v-1.74h-0.39c-0.96,0-1.71,0.15-2.22,0.46c-0.52,0.31-0.95,0.85-1.3,1.63v-1.98h-3.12v1.54
		h1.75v5.67h-1.75v1.53h5.36v-1.53h-1.9v-1.98C45.87,62.36,45.94,61.65,46.09,61.16L46.09,61.16z M58.14,60.19
		c-0.39-0.76-0.93-1.34-1.62-1.75c-0.68-0.41-1.49-0.61-2.41-0.61c-0.84,0-1.61,0.2-2.31,0.59c-0.7,0.4-1.25,0.95-1.65,1.65
		c-0.4,0.7-0.6,1.49-0.6,2.37c0,0.88,0.2,1.67,0.61,2.38c0.41,0.7,0.98,1.25,1.71,1.65s1.57,0.59,2.51,0.59
		c0.91,0,1.75-0.19,2.52-0.57c0.77-0.38,1.4-0.94,1.88-1.68l-1.51-0.68c-0.33,0.49-0.75,0.86-1.24,1.1
		c-0.49,0.24-1.03,0.36-1.6,0.36c-0.79,0-1.45-0.24-2-0.73c-0.54-0.48-0.87-1.15-0.97-1.98h7.33
		C58.74,61.84,58.53,60.94,58.14,60.19L58.14,60.19z M55.95,59.91c0.52,0.44,0.86,1.01,1.02,1.73H51.5
		c0.14-0.72,0.45-1.29,0.94-1.73c0.49-0.44,1.06-0.65,1.7-0.65C54.83,59.26,55.43,59.48,55.95,59.91L55.95,59.91z"/>
</g>
<g id="Schools">
	<path class="st0" d="M57.8,47.33c2.01,0,4.03-0.45,5.63-1.59c2.57-1.85,3.17-4.73,3.17-6.28c0-3.03-1.04-5.37-5.44-8.89l-1.04-0.83
		c-3.58-2.84-4.55-4.2-4.55-6.35c0-2.76,2.01-4.39,4.58-4.39c3.43,0,4.43,1.59,4.66,2c0.22,0.42,0.45,1.44,0.48,1.89
		c0.04,0.3,0.07,0.49,0.3,0.49c0.19,0,0.26-0.27,0.26-0.87c0-2.57,0.15-3.82,0.15-4.01c0-0.19-0.07-0.26-0.37-0.26
		c-0.3,0-0.6-0.04-1.3-0.19c-0.93-0.23-2.01-0.38-3.47-0.38c-4.73,0-7.71,2.76-7.71,6.81c0,2.57,0.89,4.92,4.85,8.21l1.68,1.4
		c3.21,2.68,4.29,4.2,4.29,6.81c0,2.42-1.75,5.03-5.33,5.03c-2.5,0-4.96-1.06-5.52-3.86c-0.11-0.53-0.11-1.06-0.11-1.4
		c0-0.3-0.04-0.42-0.26-0.42c-0.19,0-0.26,0.19-0.3,0.6c-0.04,0.61-0.19,2.12-0.19,4.01c0,1.02,0.04,1.17,0.56,1.44
		C54.33,47.06,56.05,47.33,57.8,47.33L57.8,47.33L57.8,47.33z"/>
	<path class="st0" d="M87.5,47.33c2.39,0,5.22-0.26,6.71-0.87c0.67-0.3,0.74-0.38,0.97-1.1c0.37-1.29,0.82-4.58,0.82-4.84
		c0-0.3-0.07-0.57-0.26-0.57c-0.22,0-0.3,0.15-0.37,0.57c-0.11,0.68-0.6,2.34-1.38,3.18c-1.49,1.55-3.69,1.89-6.48,1.89
		c-7.98,0-13.45-6.62-13.45-13.84c0-3.86,0.63-7.22,3.35-9.87c1.3-1.29,3.61-2.76,8.57-2.76c3.28,0,6.15,1.02,7.45,2.16
		C94.4,22.11,95,23.66,95,25.13c0,0.53,0.04,0.79,0.3,0.79c0.22,0,0.3-0.23,0.34-0.79c0.04-0.57,0.04-2.65,0.11-3.89
		c0.07-1.36,0.19-1.81,0.19-2.12c0-0.23-0.07-0.38-0.49-0.42c-1.19-0.08-2.38-0.3-3.8-0.57c-1.83-0.34-3.91-0.45-5.4-0.45
		c-5.74,0-9.13,1.78-11.37,4.05c-3.32,3.37-4.17,7.79-4.17,10.32c0,3.59,0.89,7.9,4.51,11.19C78.15,45.93,81.91,47.33,87.5,47.33
		L87.5,47.33L87.5,47.33z"/>
	<path class="st0" d="M124.1,29.18c0-5.9,0-6.96,0.08-8.17c0.07-1.32,0.37-1.97,1.38-2.16c0.45-0.08,0.67-0.11,0.93-0.11
		c0.15,0,0.3-0.08,0.3-0.23c0-0.23-0.19-0.3-0.6-0.3c-1.12,0-3.47,0.11-3.65,0.11c-0.19,0-2.54-0.11-4.21-0.11
		c-0.41,0-0.6,0.08-0.6,0.3c0,0.15,0.15,0.23,0.3,0.23c0.33,0,0.97,0.04,1.27,0.11c1.23,0.26,1.53,0.87,1.6,2.16
		c0.08,1.21,0.08,2.27,0.08,8.17v0.79c0,0.19-0.11,0.23-0.22,0.23h-15.8c-0.11,0-0.22-0.04-0.22-0.23v-0.79c0-5.9,0-6.96,0.08-8.17
		c0.07-1.32,0.37-1.97,1.38-2.16c0.45-0.08,0.67-0.11,0.93-0.11c0.15,0,0.3-0.08,0.3-0.23c0-0.23-0.19-0.3-0.6-0.3
		c-1.12,0-3.47,0.11-3.65,0.11c-0.19,0-2.54-0.11-4.21-0.11c-0.41,0-0.6,0.08-0.6,0.3c0,0.15,0.15,0.23,0.3,0.23
		c0.34,0,0.97,0.04,1.27,0.11c1.23,0.26,1.53,0.87,1.6,2.16c0.07,1.21,0.07,2.27,0.07,8.17v6.66c0,3.63,0,6.62-0.19,8.21
		c-0.15,1.1-0.34,1.93-1.08,2.08c-0.34,0.08-0.78,0.15-1.12,0.15c-0.22,0-0.3,0.11-0.3,0.23c0,0.23,0.19,0.3,0.6,0.3
		c1.12,0,3.47-0.11,3.65-0.11c0.19,0,2.53,0.11,4.58,0.11c0.41,0,0.6-0.11,0.6-0.3c0-0.11-0.07-0.23-0.3-0.23
		c-0.33,0-1.15-0.08-1.68-0.15c-1.12-0.15-1.34-0.98-1.45-2.08c-0.19-1.59-0.19-4.58-0.19-8.21v-3.97c0-0.19,0.11-0.23,0.22-0.23
		h15.8c0.11,0,0.22,0.08,0.22,0.23v3.97c0,3.63,0,6.62-0.19,8.21c-0.15,1.1-0.33,1.93-1.08,2.08c-0.34,0.08-0.78,0.15-1.12,0.15
		c-0.22,0-0.3,0.11-0.3,0.23c0,0.23,0.19,0.3,0.6,0.3c1.12,0,3.47-0.11,3.65-0.11c0.19,0,2.53,0.11,4.58,0.11
		c0.41,0,0.6-0.11,0.6-0.3c0-0.11-0.07-0.23-0.3-0.23c-0.34,0-1.16-0.08-1.68-0.15c-1.12-0.15-1.34-0.98-1.45-2.08
		c-0.19-1.59-0.19-4.58-0.19-8.21V29.18L124.1,29.18L124.1,29.18z"/>
	<path class="st0" d="M130.51,32.47c0,6.81,4.25,14.86,14.46,14.86c8.98,0,14.87-7,14.87-15.47c0-8.81-6.26-14.18-14.65-14.18
		C134.91,17.68,130.51,26.34,130.51,32.47L130.51,32.47L130.51,32.47z M134.05,31.41c0-8.28,4.66-12.44,10.88-12.44
		c5.89,0,11.33,4.88,11.33,13.95c0,11-6.93,12.97-10.29,12.97C139.27,45.89,134.05,40.22,134.05,31.41L134.05,31.41L134.05,31.41z"
		/>
	<path class="st0" d="M164.61,32.47c0,6.81,4.25,14.86,14.46,14.86c8.98,0,14.87-7,14.87-15.47c0-8.81-6.26-14.18-14.65-14.18
		C169.01,17.68,164.61,26.34,164.61,32.47L164.61,32.47L164.61,32.47z M168.16,31.41c0-8.28,4.66-12.44,10.88-12.44
		c5.89,0,11.33,4.88,11.33,13.95c0,11-6.93,12.97-10.29,12.97C173.37,45.89,168.16,40.22,168.16,31.41L168.16,31.41L168.16,31.41z"
		/>
	<path class="st0" d="M204.61,29.18c0-5.9,0-6.96,0.08-8.17c0.07-1.32,0.37-1.97,1.45-2.16c0.45-0.08,0.97-0.11,1.23-0.11
		c0.15,0,0.3-0.08,0.3-0.23c0-0.23-0.19-0.3-0.6-0.3c-1.12,0-3.84,0.11-4.02,0.11c-0.19,0-2.54-0.11-4.21-0.11
		c-0.41,0-0.6,0.08-0.6,0.3c0,0.15,0.15,0.23,0.3,0.23c0.34,0,0.97,0.04,1.27,0.11c1.23,0.26,1.53,0.87,1.6,2.16
		c0.07,1.21,0.07,2.27,0.07,8.17v6.66c0,3.63,0,6.62-0.19,8.21c-0.15,1.1-0.33,1.93-1.08,2.08c-0.33,0.08-0.78,0.15-1.12,0.15
		c-0.22,0-0.3,0.11-0.3,0.23c0,0.23,0.19,0.3,0.6,0.3c0.56,0,1.38-0.04,2.13-0.08c0.75,0,1.38-0.04,1.53-0.04
		c1.08,0,2.24,0.04,3.8,0.11c1.56,0.04,3.5,0.11,6.19,0.11c1.98,0,2.09-0.15,2.35-1.02c0.3-1.1,0.56-3.37,0.56-3.78
		c0-0.42-0.04-0.57-0.22-0.57c-0.22,0-0.3,0.19-0.34,0.49c-0.11,0.72-0.49,1.66-0.97,2.27c-0.89,1.1-2.53,1.13-4.51,1.13
		c-2.91,0-3.88-0.26-4.47-0.87c-0.67-0.68-0.82-3.1-0.82-8.66V29.18L204.61,29.18L204.61,29.18z"/>
	<path class="st0" d="M226.15,47.33c2.01,0,4.02-0.45,5.63-1.59c2.57-1.85,3.17-4.73,3.17-6.28c0-3.03-1.04-5.37-5.44-8.89
		l-1.04-0.83c-3.58-2.84-4.55-4.2-4.55-6.35c0-2.76,2.01-4.39,4.58-4.39c3.43,0,4.43,1.59,4.66,2c0.22,0.42,0.45,1.44,0.48,1.89
		c0.04,0.3,0.07,0.49,0.3,0.49c0.19,0,0.26-0.27,0.26-0.87c0-2.57,0.15-3.82,0.15-4.01c0-0.19-0.08-0.26-0.37-0.26
		c-0.3,0-0.6-0.04-1.3-0.19c-0.93-0.23-2.01-0.38-3.47-0.38c-4.73,0-7.71,2.76-7.71,6.81c0,2.57,0.89,4.92,4.85,8.21l1.68,1.4
		c3.21,2.68,4.29,4.2,4.29,6.81c0,2.42-1.75,5.03-5.33,5.03c-2.5,0-4.96-1.06-5.52-3.86c-0.11-0.53-0.11-1.06-0.11-1.4
		c0-0.3-0.04-0.42-0.26-0.42c-0.19,0-0.26,0.19-0.3,0.6c-0.04,0.61-0.19,2.12-0.19,4.01c0,1.02,0.04,1.17,0.56,1.44
		C222.68,47.06,224.4,47.33,226.15,47.33L226.15,47.33L226.15,47.33z"/>
</g>
<g id="Greenville_County">
	<path class="st2" d="M62.36,10.87c0,0.27-0.11,0.44-0.31,0.56c-0.41,0.24-1.22,0.33-1.78,0.33c-1.44,0-2.86-0.48-4.1-1.7
		c-0.55-0.54-1.66-2.16-1.66-4.4c0-1.86,0.64-3.3,1.55-4.03c1.19-0.95,2.36-1.05,3.35-1.05c2.02,0,3.28,0.68,3.68,1.29
		c0.23,0.38,0.31,0.83,0.33,1.05c0.02,0.14,0.03,0.24,0.11,0.24c0.11,0,0.14-0.08,0.14-0.33c0-1.59,0.11-2.03,0.11-2.25
		c0-0.06-0.03-0.13-0.19-0.14c-0.39-0.02-0.94-0.08-1.27-0.16C62.01,0.21,60.9,0,59.92,0c-1.2,0-2.75,0.11-4.16,1
		c-1.39,0.89-2.61,2.68-2.61,5.22c0,1.98,0.91,3.68,1.86,4.52c1.74,1.54,3.96,1.7,5.15,1.7c0.91,0,2.32-0.17,3.32-0.71
		c0.19-0.11,0.2-0.14,0.2-0.86V9.09c0-0.67,0-1.14,0.03-1.65c0.03-0.56,0.16-0.83,0.58-0.9c0.19-0.03,0.28-0.05,0.39-0.05
		c0.06,0,0.13-0.03,0.13-0.1c0-0.1-0.08-0.13-0.25-0.13c-0.47,0-1.45,0.05-1.53,0.05c-0.08,0-1.06-0.05-1.77-0.05
		C61.07,6.27,61,6.3,61,6.4c0,0.06,0.06,0.1,0.13,0.1c0.14,0,0.41,0.02,0.53,0.05c0.63,0.17,0.7,0.35,0.7,1.63V10.87L62.36,10.87
		L62.36,10.87z"/>
	<path class="st2" d="M68.23,7.62c0,1.52,0,2.78-0.08,3.44c-0.06,0.46-0.14,0.81-0.45,0.87C67.56,11.97,67.37,12,67.23,12
		c-0.09,0-0.13,0.05-0.13,0.1c0,0.1,0.08,0.13,0.25,0.13c0.47,0,1.45-0.05,1.47-0.05c0.08,0,1.06,0.05,1.92,0.05
		c0.17,0,0.25-0.05,0.25-0.13c0-0.05-0.03-0.1-0.12-0.1c-0.14,0-0.48-0.03-0.7-0.06c-0.47-0.06-0.56-0.41-0.61-0.87
		c-0.08-0.67-0.08-1.92-0.08-3.44V7.24c0-0.08,0.03-0.13,0.11-0.13l1.92,0.03c0.09,0,0.14,0.03,0.2,0.1
		c0.31,0.41,1.05,1.48,1.7,2.35c0.89,1.19,1.44,1.97,2.11,2.33c0.41,0.22,0.8,0.3,1.67,0.3h1.11c0.28,0,0.38-0.03,0.38-0.13
		c0-0.05-0.06-0.1-0.14-0.1c-0.09,0-0.31,0-0.61-0.05c-0.39-0.06-1.06-0.24-1.91-1.14c-0.91-0.98-1.97-2.4-3.25-4.06
		c1.41-1.32,1.89-2.49,1.89-3.67c0-1.1-0.69-1.87-1.08-2.16c-0.83-0.6-1.88-0.7-2.86-0.7c-0.48,0-1.67,0.05-1.85,0.05
		c-0.08,0-1.06-0.05-1.77-0.05c-0.17,0-0.25,0.03-0.25,0.13c0,0.06,0.06,0.09,0.13,0.09c0.14,0,0.41,0.02,0.53,0.05
		c0.52,0.11,0.64,0.36,0.67,0.9c0.03,0.51,0.03,0.95,0.03,3.43V7.62L68.23,7.62L68.23,7.62z M69.48,1.02c0-0.1,0.05-0.16,0.13-0.19
		c0.16-0.05,0.58-0.1,1.05-0.1c1.67,0,2.71,1.19,2.71,3.17c0,1.21-0.41,2.06-0.95,2.44c-0.36,0.25-0.8,0.3-1.17,0.3
		c-0.69,0-1.41-0.11-1.64-0.25c-0.08-0.05-0.11-0.11-0.11-0.19V1.02L69.48,1.02L69.48,1.02z"/>
	<path class="st2" d="M68.23,7.62c0,1.52,0,2.78-0.08,3.44c-0.06,0.46-0.14,0.81-0.45,0.87C67.56,11.97,67.37,12,67.23,12
		c-0.09,0-0.13,0.05-0.13,0.1c0,0.1,0.08,0.13,0.25,0.13c0.47,0,1.45-0.05,1.47-0.05c0.08,0,1.06,0.05,1.92,0.05
		c0.17,0,0.25-0.05,0.25-0.13c0-0.05-0.03-0.1-0.12-0.1c-0.14,0-0.48-0.03-0.7-0.06c-0.47-0.06-0.56-0.41-0.61-0.87
		c-0.08-0.67-0.08-1.92-0.08-3.44V7.24c0-0.08,0.03-0.13,0.11-0.13l1.92,0.03c0.09,0,0.14,0.03,0.2,0.1
		c0.31,0.41,1.05,1.48,1.7,2.35c0.89,1.19,1.44,1.97,2.11,2.33c0.41,0.22,0.8,0.3,1.67,0.3h1.11c0.28,0,0.38-0.03,0.38-0.13
		c0-0.05-0.06-0.1-0.14-0.1c-0.09,0-0.31,0-0.61-0.05c-0.39-0.06-1.06-0.24-1.91-1.14c-0.91-0.98-1.97-2.4-3.25-4.06
		c1.41-1.32,1.89-2.49,1.89-3.67c0-1.1-0.69-1.87-1.08-2.16c-0.83-0.6-1.88-0.7-2.86-0.7c-0.48,0-1.67,0.05-1.85,0.05
		c-0.08,0-1.06-0.05-1.77-0.05c-0.17,0-0.25,0.03-0.25,0.13c0,0.06,0.06,0.09,0.13,0.09c0.14,0,0.41,0.02,0.53,0.05
		c0.52,0.11,0.64,0.36,0.67,0.9c0.03,0.51,0.03,0.95,0.03,3.43V7.62L68.23,7.62L68.23,7.62z M69.48,1.02c0-0.1,0.05-0.16,0.13-0.19
		c0.16-0.05,0.58-0.1,1.05-0.1c1.67,0,2.71,1.19,2.71,3.17c0,1.21-0.41,2.06-0.95,2.44c-0.36,0.25-0.8,0.3-1.17,0.3
		c-0.69,0-1.41-0.11-1.64-0.25c-0.08-0.05-0.11-0.11-0.11-0.19V1.02L69.48,1.02L69.48,1.02z"/>
	<path class="st2" d="M79.85,7.62c0,1.52,0,2.78-0.08,3.44c-0.06,0.46-0.14,0.81-0.45,0.87C79.18,11.97,78.99,12,78.85,12
		c-0.09,0-0.12,0.05-0.12,0.1c0,0.1,0.08,0.13,0.25,0.13c0.23,0,0.59-0.03,0.91-0.03c0.33-0.02,0.59-0.02,0.63-0.02
		c0.23,0,0.61,0.02,1.22,0.05c0.61,0.02,1.47,0.05,2.64,0.05c0.61,0,0.74,0,0.84-0.41c0.08-0.33,0.2-1.41,0.2-1.54
		c0-0.11,0-0.24-0.09-0.24c-0.08,0-0.11,0.06-0.14,0.24c-0.11,0.65-0.3,0.97-0.7,1.14c-0.41,0.17-1.09,0.17-1.5,0.17
		c-1.53,0-1.77-0.21-1.81-1.3c-0.02-0.33,0-2.17,0-2.71v-1.4c0-0.06,0.03-0.11,0.11-0.11c0.27,0,1.81,0.03,2.24,0.08
		c0.61,0.06,0.75,0.33,0.81,0.56c0.06,0.21,0.06,0.36,0.06,0.52c0,0.08,0.03,0.14,0.11,0.14c0.11,0,0.11-0.17,0.11-0.3
		c0-0.11,0.03-0.7,0.06-1.02c0.05-0.52,0.13-0.79,0.13-0.89c0-0.1-0.03-0.13-0.08-0.13c-0.06,0-0.13,0.08-0.23,0.21
		c-0.14,0.16-0.36,0.19-0.73,0.22c-0.36,0.03-2.28,0.03-2.49,0.03c-0.08,0-0.09-0.05-0.09-0.16V1c0-0.11,0.03-0.16,0.09-0.16
		c0.17,0,1.88,0.02,2.14,0.05c0.84,0.09,1,0.29,1.11,0.54C84.59,1.62,84.6,1.89,84.6,2c0,0.13,0.03,0.21,0.13,0.21
		c0.06,0,0.09-0.1,0.11-0.17c0.03-0.19,0.06-0.89,0.08-1.05c0.05-0.44,0.13-0.63,0.13-0.75c0-0.08-0.02-0.14-0.06-0.14
		c-0.08,0-0.14,0.06-0.22,0.08c-0.13,0.03-0.38,0.06-0.67,0.08c-0.36,0.02-3.47,0.02-3.58,0.02l-0.64-0.03
		c-0.34-0.02-0.77-0.02-1.13-0.02c-0.17,0-0.25,0.03-0.25,0.13c0,0.06,0.06,0.09,0.13,0.09c0.14,0,0.41,0.02,0.53,0.05
		c0.52,0.11,0.64,0.36,0.67,0.9c0.03,0.51,0.03,0.95,0.03,3.43V7.62L79.85,7.62L79.85,7.62z"/>
	<path class="st2" d="M89.21,7.62c0,1.52,0,2.78-0.08,3.44c-0.06,0.46-0.14,0.81-0.45,0.87C88.54,11.97,88.35,12,88.21,12
		c-0.09,0-0.13,0.05-0.13,0.1c0,0.1,0.08,0.13,0.25,0.13c0.23,0,0.59-0.03,0.91-0.03c0.33-0.02,0.59-0.02,0.63-0.02
		c0.23,0,0.61,0.02,1.22,0.05c0.61,0.02,1.47,0.05,2.64,0.05c0.61,0,0.74,0,0.85-0.41c0.08-0.33,0.2-1.41,0.2-1.54
		c0-0.11,0-0.24-0.09-0.24c-0.08,0-0.11,0.06-0.14,0.24c-0.11,0.65-0.3,0.97-0.7,1.14c-0.41,0.17-1.1,0.17-1.5,0.17
		c-1.53,0-1.77-0.21-1.81-1.3c-0.02-0.33,0-2.17,0-2.71v-1.4c0-0.06,0.03-0.11,0.11-0.11c0.27,0,1.81,0.03,2.24,0.08
		c0.61,0.06,0.75,0.33,0.81,0.56c0.06,0.21,0.06,0.36,0.06,0.52c0,0.08,0.03,0.14,0.11,0.14c0.11,0,0.11-0.17,0.11-0.3
		c0-0.11,0.03-0.7,0.06-1.02c0.05-0.52,0.13-0.79,0.13-0.89c0-0.1-0.03-0.13-0.08-0.13c-0.06,0-0.13,0.08-0.23,0.21
		c-0.14,0.16-0.36,0.19-0.74,0.22c-0.36,0.03-2.28,0.03-2.49,0.03c-0.08,0-0.09-0.05-0.09-0.16V1c0-0.11,0.03-0.16,0.09-0.16
		c0.17,0,1.88,0.02,2.14,0.05c0.85,0.09,1,0.29,1.11,0.54c0.08,0.19,0.09,0.46,0.09,0.57c0,0.13,0.03,0.21,0.13,0.21
		c0.06,0,0.09-0.1,0.11-0.17c0.03-0.19,0.06-0.89,0.08-1.05c0.05-0.44,0.13-0.63,0.13-0.75c0-0.08-0.02-0.14-0.06-0.14
		c-0.08,0-0.14,0.06-0.22,0.08C94,0.21,93.75,0.24,93.45,0.25c-0.36,0.02-3.47,0.02-3.58,0.02l-0.64-0.03
		c-0.34-0.02-0.77-0.02-1.13-0.02c-0.17,0-0.25,0.03-0.25,0.13c0,0.06,0.06,0.09,0.13,0.09c0.14,0,0.41,0.02,0.53,0.05
		c0.52,0.11,0.64,0.36,0.67,0.9c0.03,0.51,0.03,0.95,0.03,3.43V7.62L89.21,7.62L89.21,7.62z"/>
	<path class="st2" d="M98.8,2.46c0.5,0.57,2.26,2.57,4.08,4.55c1.65,1.81,3.9,4.14,4.08,4.3c0.83,0.84,1.02,1.02,1.15,1.02
		c0.11,0,0.14-0.08,0.14-1.13l0.03-9.3c0-0.95,0.06-1.3,0.58-1.41c0.19-0.05,0.3-0.05,0.38-0.05c0.11,0,0.17-0.05,0.17-0.11
		c0-0.1-0.11-0.11-0.28-0.11c-0.64,0-1.16,0.05-1.33,0.05c-0.17,0-0.93-0.05-1.63-0.05c-0.19,0-0.31,0.02-0.31,0.11
		c0,0.06,0.02,0.11,0.12,0.11c0.13,0,0.48,0.02,0.76,0.08c0.48,0.13,0.59,0.48,0.61,1.51l0.17,8.06c-0.5-0.52-2.2-2.46-3.75-4.14
		c-2.4-2.62-4.73-5.17-4.97-5.44C98.64,0.35,98.38,0,98.25,0s-0.17,0.17-0.17,0.79l-0.02,9.09c0,1.44-0.08,1.9-0.47,2.02
		c-0.24,0.08-0.52,0.1-0.64,0.1c-0.08,0-0.13,0.03-0.13,0.1c0,0.11,0.09,0.13,0.25,0.13c0.7,0,1.36-0.05,1.5-0.05
		c0.14,0,0.77,0.05,1.66,0.05c0.19,0,0.28-0.03,0.28-0.13c0-0.06-0.05-0.1-0.12-0.1c-0.14,0-0.48-0.02-0.78-0.1
		c-0.42-0.13-0.58-0.54-0.61-1.84L98.8,2.46L98.8,2.46L98.8,2.46z"/>
	<path class="st2" d="M113.6,2.16c-0.23-0.62-0.42-1.11-0.42-1.32c0-0.11,0.03-0.24,0.2-0.32c0.14-0.06,0.42-0.08,0.59-0.08
		c0.11,0,0.16-0.03,0.16-0.11c0-0.08-0.14-0.11-0.42-0.11c-0.6,0-1.3,0.05-1.45,0.05c-0.19,0-1.08-0.05-1.83-0.05
		c-0.25,0-0.41,0.02-0.41,0.11c0,0.06,0.03,0.11,0.12,0.11c0.1,0,0.36,0,0.6,0.06c0.55,0.16,0.78,0.33,1.13,1.22l3.83,9.73
		c0.3,0.76,0.38,0.98,0.56,0.98c0.16,0,0.22-0.25,0.66-1.21c0.36-0.78,1.06-2.49,2.02-4.81c0.8-1.95,1.58-3.86,1.75-4.3
		c0.42-1.08,0.66-1.35,0.86-1.49c0.3-0.19,0.64-0.19,0.75-0.19c0.13,0,0.19-0.03,0.19-0.11c0-0.08-0.09-0.11-0.27-0.11
		c-0.45,0-1.13,0.05-1.22,0.05c-0.19,0-0.91-0.05-1.53-0.05c-0.25,0-0.35,0.03-0.35,0.13c0,0.08,0.08,0.09,0.17,0.09
		c0.17,0,0.41,0,0.59,0.06c0.16,0.08,0.2,0.24,0.2,0.36c0,0.14-0.06,0.37-0.14,0.6c-0.34,1.14-2.44,6.68-3.35,8.81L113.6,2.16
		L113.6,2.16L113.6,2.16z"/>
	<path class="st2" d="M125.95,4.82c0-2.48,0-2.92,0.03-3.43c0.03-0.56,0.16-0.83,0.58-0.9c0.19-0.03,0.28-0.05,0.39-0.05
		c0.06,0,0.13-0.03,0.13-0.09c0-0.1-0.08-0.13-0.25-0.13c-0.47,0-1.45,0.05-1.53,0.05c-0.08,0-1.06-0.05-1.58-0.05
		c-0.17,0-0.25,0.03-0.25,0.13c0,0.06,0.06,0.09,0.13,0.09c0.11,0,0.31,0.02,0.48,0.06c0.35,0.08,0.5,0.35,0.53,0.89
		c0.03,0.51,0.03,0.95,0.03,3.43v2.79c0,1.52,0,2.78-0.08,3.44c-0.06,0.46-0.14,0.81-0.45,0.87c-0.14,0.03-0.33,0.06-0.47,0.06
		c-0.09,0-0.13,0.05-0.13,0.1c0,0.1,0.08,0.13,0.25,0.13c0.47,0,1.45-0.05,1.53-0.05c0.08,0,1.06,0.05,1.92,0.05
		c0.17,0,0.25-0.05,0.25-0.13c0-0.05-0.03-0.1-0.12-0.1c-0.14,0-0.49-0.03-0.7-0.06c-0.47-0.06-0.56-0.41-0.61-0.87
		c-0.08-0.67-0.08-1.92-0.08-3.44V4.82L125.95,4.82L125.95,4.82z"/>
	<path class="st2" d="M132.66,4.82c0-2.48,0-2.92,0.03-3.43c0.03-0.56,0.16-0.83,0.61-0.9c0.19-0.03,0.41-0.05,0.52-0.05
		c0.06,0,0.13-0.03,0.13-0.09c0-0.1-0.08-0.13-0.25-0.13c-0.47,0-1.61,0.05-1.69,0.05c-0.08,0-1.06-0.05-1.77-0.05
		c-0.17,0-0.25,0.03-0.25,0.13c0,0.06,0.06,0.09,0.13,0.09c0.14,0,0.41,0.02,0.53,0.05c0.52,0.11,0.64,0.36,0.67,0.9
		c0.03,0.51,0.03,0.95,0.03,3.43v2.79c0,1.52,0,2.78-0.08,3.44c-0.06,0.46-0.14,0.81-0.45,0.87c-0.14,0.03-0.33,0.06-0.47,0.06
		c-0.09,0-0.13,0.05-0.13,0.1c0,0.1,0.08,0.13,0.25,0.13c0.24,0,0.58-0.02,0.89-0.03c0.31,0,0.58-0.02,0.64-0.02
		c0.45,0,0.94,0.02,1.6,0.05c0.66,0.02,1.47,0.05,2.6,0.05c0.83,0,0.88-0.06,0.99-0.43c0.13-0.46,0.23-1.41,0.23-1.59
		c0-0.17-0.02-0.24-0.09-0.24c-0.09,0-0.13,0.08-0.14,0.21c-0.05,0.3-0.2,0.7-0.41,0.95c-0.38,0.46-1.06,0.48-1.89,0.48
		c-1.22,0-1.63-0.11-1.88-0.36c-0.28-0.29-0.34-1.3-0.34-3.63V4.82L132.66,4.82L132.66,4.82z"/>
	<path class="st2" d="M141.74,4.82c0-2.48,0-2.92,0.03-3.43c0.03-0.56,0.16-0.83,0.61-0.9c0.19-0.03,0.41-0.05,0.52-0.05
		c0.06,0,0.13-0.03,0.13-0.09c0-0.1-0.08-0.13-0.25-0.13c-0.47,0-1.61,0.05-1.69,0.05c-0.08,0-1.06-0.05-1.77-0.05
		c-0.17,0-0.25,0.03-0.25,0.13c0,0.06,0.06,0.09,0.13,0.09c0.14,0,0.41,0.02,0.53,0.05c0.52,0.11,0.64,0.36,0.67,0.9
		c0.03,0.51,0.03,0.95,0.03,3.43v2.79c0,1.52,0,2.78-0.08,3.44c-0.06,0.46-0.14,0.81-0.45,0.87c-0.14,0.03-0.33,0.06-0.47,0.06
		c-0.09,0-0.13,0.05-0.13,0.1c0,0.1,0.08,0.13,0.25,0.13c0.23,0,0.58-0.02,0.89-0.03c0.31,0,0.58-0.02,0.64-0.02
		c0.45,0,0.94,0.02,1.6,0.05c0.66,0.02,1.47,0.05,2.6,0.05c0.83,0,0.88-0.06,0.99-0.43c0.13-0.46,0.23-1.41,0.23-1.59
		c0-0.17-0.01-0.24-0.09-0.24c-0.1,0-0.13,0.08-0.14,0.21c-0.05,0.3-0.2,0.7-0.41,0.95c-0.38,0.46-1.06,0.48-1.89,0.48
		c-1.22,0-1.63-0.11-1.88-0.36c-0.28-0.29-0.35-1.3-0.35-3.63V4.82L141.74,4.82L141.74,4.82z"/>
	<path class="st2" d="M149.51,7.62c0,1.52,0,2.78-0.08,3.44c-0.06,0.46-0.14,0.81-0.45,0.87c-0.14,0.03-0.33,0.06-0.47,0.06
		c-0.09,0-0.12,0.05-0.12,0.1c0,0.1,0.08,0.13,0.25,0.13c0.24,0,0.6-0.03,0.91-0.03c0.33-0.02,0.6-0.02,0.63-0.02
		c0.23,0,0.61,0.02,1.22,0.05c0.61,0.02,1.47,0.05,2.64,0.05c0.61,0,0.74,0,0.85-0.41c0.08-0.33,0.2-1.41,0.2-1.54
		c0-0.11,0-0.24-0.09-0.24c-0.08,0-0.11,0.06-0.14,0.24c-0.11,0.65-0.3,0.97-0.7,1.14c-0.41,0.17-1.1,0.17-1.5,0.17
		c-1.53,0-1.77-0.21-1.81-1.3c-0.02-0.33,0-2.17,0-2.71v-1.4c0-0.06,0.03-0.11,0.11-0.11c0.27,0,1.82,0.03,2.24,0.08
		c0.61,0.06,0.75,0.33,0.81,0.56c0.06,0.21,0.06,0.36,0.06,0.52c0,0.08,0.03,0.14,0.11,0.14c0.11,0,0.11-0.17,0.11-0.3
		c0-0.11,0.03-0.7,0.06-1.02c0.05-0.52,0.13-0.79,0.13-0.89c0-0.1-0.03-0.13-0.08-0.13c-0.06,0-0.13,0.08-0.23,0.21
		c-0.14,0.16-0.36,0.19-0.74,0.22c-0.36,0.03-2.28,0.03-2.49,0.03c-0.08,0-0.09-0.05-0.09-0.16V1c0-0.11,0.03-0.16,0.09-0.16
		c0.17,0,1.88,0.02,2.14,0.05c0.84,0.09,1,0.29,1.11,0.54c0.08,0.19,0.09,0.46,0.09,0.57c0,0.13,0.03,0.21,0.13,0.21
		c0.06,0,0.09-0.1,0.11-0.17c0.03-0.19,0.06-0.89,0.08-1.05c0.05-0.44,0.13-0.63,0.13-0.75c0-0.08-0.02-0.14-0.06-0.14
		c-0.08,0-0.14,0.06-0.22,0.08c-0.13,0.03-0.38,0.06-0.67,0.08c-0.36,0.02-3.47,0.02-3.58,0.02l-0.64-0.03
		c-0.34-0.02-0.77-0.02-1.13-0.02c-0.17,0-0.25,0.03-0.25,0.13c0,0.06,0.06,0.09,0.13,0.09c0.14,0,0.41,0.02,0.53,0.05
		c0.52,0.11,0.64,0.36,0.67,0.9c0.03,0.51,0.03,0.95,0.03,3.43V7.62L149.51,7.62L149.51,7.62z"/>
	<path class="st2" d="M168.87,12.44c1,0,2.19-0.11,2.82-0.37c0.28-0.13,0.31-0.16,0.41-0.46c0.16-0.54,0.34-1.92,0.34-2.03
		c0-0.13-0.03-0.24-0.11-0.24c-0.09,0-0.12,0.06-0.16,0.24c-0.05,0.29-0.25,0.98-0.58,1.33c-0.63,0.65-1.55,0.79-2.72,0.79
		c-3.35,0-5.65-2.78-5.65-5.81c0-1.62,0.27-3.03,1.41-4.14c0.55-0.54,1.52-1.16,3.6-1.16c1.38,0,2.58,0.43,3.13,0.9
		c0.41,0.35,0.66,1,0.66,1.62c0,0.22,0.01,0.33,0.13,0.33c0.09,0,0.13-0.1,0.14-0.33c0.02-0.24,0.02-1.11,0.05-1.63
		c0.03-0.57,0.08-0.76,0.08-0.89c0-0.1-0.03-0.16-0.2-0.17c-0.5-0.03-1-0.13-1.6-0.24C169.84,0.05,168.97,0,168.34,0
		c-2.41,0-3.83,0.75-4.77,1.7c-1.39,1.41-1.75,3.27-1.75,4.33c0,1.51,0.38,3.32,1.89,4.7C164.95,11.85,166.53,12.44,168.87,12.44
		L168.87,12.44L168.87,12.44z"/>
	<path class="st2" d="M174.23,6.2c0,2.86,1.78,6.24,6.07,6.24c3.77,0,6.24-2.94,6.24-6.49c0-3.7-2.63-5.95-6.15-5.95
		C176.08,0,174.23,3.63,174.23,6.2L174.23,6.2L174.23,6.2z M175.72,5.76c0-3.48,1.96-5.22,4.57-5.22c2.47,0,4.76,2.05,4.76,5.86
		c0,4.62-2.91,5.44-4.32,5.44C177.91,11.84,175.72,9.46,175.72,5.76L175.72,5.76L175.72,5.76z"/>
	<path class="st2" d="M174.23,6.2c0,2.86,1.78,6.24,6.07,6.24c3.77,0,6.24-2.94,6.24-6.49c0-3.7-2.63-5.95-6.15-5.95
		C176.08,0,174.23,3.63,174.23,6.2L174.23,6.2L174.23,6.2z M175.72,5.76c0-3.48,1.96-5.22,4.57-5.22c2.47,0,4.76,2.05,4.76,5.86
		c0,4.62-2.91,5.44-4.32,5.44C177.91,11.84,175.72,9.46,175.72,5.76L175.72,5.76L175.72,5.76z"/>
	<path class="st2" d="M189.24,7.14c0,2.32,0.6,3.43,1.36,4.17c1.11,1.06,2.69,1.13,3.22,1.13c0.92,0,2.1-0.16,3.22-1.17
		c1.25-1.13,1.44-3.03,1.44-4.74v-1.7c0-2.48,0-2.92,0.03-3.43c0.03-0.56,0.16-0.81,0.58-0.9c0.19-0.03,0.28-0.05,0.39-0.05
		c0.06,0,0.13-0.03,0.13-0.09c0-0.1-0.08-0.13-0.25-0.13c-0.47,0-1.2,0.05-1.31,0.05c-0.09,0-0.95-0.05-1.66-0.05
		c-0.17,0-0.25,0.03-0.25,0.13c0,0.06,0.06,0.09,0.13,0.09c0.14,0,0.41,0.02,0.53,0.05c0.52,0.11,0.64,0.36,0.67,0.9
		c0.03,0.51,0.03,0.95,0.03,3.43v1.98c0,1.63-0.19,2.98-0.91,3.89c-0.56,0.68-1.5,1.14-2.46,1.14c-0.89,0-1.6-0.14-2.36-0.87
		c-0.67-0.65-1.17-1.63-1.17-3.92V4.82c0-2.48,0-2.92,0.03-3.43c0.03-0.56,0.16-0.84,0.58-0.9c0.19-0.03,0.28-0.05,0.39-0.05
		c0.06,0,0.12-0.03,0.12-0.09c0-0.1-0.08-0.13-0.25-0.13c-0.47,0-1.41,0.05-1.55,0.05c-0.14,0-1.1-0.05-1.8-0.05
		c-0.17,0-0.25,0.03-0.25,0.13c0,0.06,0.06,0.09,0.13,0.09c0.14,0,0.41,0.02,0.53,0.05c0.52,0.11,0.64,0.36,0.67,0.9
		c0.03,0.51,0.03,0.95,0.03,3.43V7.14L189.24,7.14L189.24,7.14z"/>
	<path class="st2" d="M203.18,2.46c0.5,0.57,2.27,2.57,4.08,4.55c1.65,1.81,3.9,4.14,4.08,4.3c0.83,0.84,1.02,1.02,1.15,1.02
		c0.11,0,0.14-0.08,0.14-1.13l0.03-9.3c0-0.95,0.06-1.3,0.58-1.41c0.19-0.05,0.3-0.05,0.38-0.05c0.11,0,0.17-0.05,0.17-0.11
		c0-0.1-0.11-0.11-0.28-0.11c-0.64,0-1.16,0.05-1.33,0.05c-0.17,0-0.92-0.05-1.63-0.05c-0.19,0-0.31,0.02-0.31,0.11
		c0,0.06,0.02,0.11,0.13,0.11c0.13,0,0.48,0.02,0.76,0.08c0.48,0.13,0.59,0.48,0.61,1.51l0.17,8.06c-0.5-0.52-2.2-2.46-3.75-4.14
		c-2.4-2.62-4.73-5.17-4.97-5.44C203.02,0.35,202.75,0,202.63,0s-0.17,0.17-0.17,0.79l-0.02,9.09c0,1.44-0.08,1.9-0.47,2.02
		c-0.23,0.08-0.51,0.1-0.64,0.1c-0.08,0-0.13,0.03-0.13,0.1c0,0.11,0.09,0.13,0.25,0.13c0.7,0,1.36-0.05,1.5-0.05
		s0.77,0.05,1.66,0.05c0.19,0,0.28-0.03,0.28-0.13c0-0.06-0.05-0.1-0.13-0.1c-0.14,0-0.48-0.02-0.78-0.1
		c-0.42-0.13-0.58-0.54-0.61-1.84L203.18,2.46L203.18,2.46L203.18,2.46z"/>
	<path class="st2" d="M220.92,0.9l1.97,0.03c1.5,0.03,1.87,0.4,1.92,0.87l0.02,0.17c0.02,0.22,0.05,0.27,0.13,0.27
		c0.06,0,0.11-0.06,0.11-0.21c0-0.17,0.05-1.27,0.05-1.75c0-0.1,0-0.19-0.08-0.19c-0.06,0-0.21,0.05-0.44,0.08
		c-0.25,0.05-0.61,0.08-1.11,0.08h-5.86c-0.19,0-0.78-0.03-1.24-0.08C215.96,0.16,215.81,0,215.7,0c-0.06,0-0.13,0.21-0.16,0.3
		c-0.03,0.13-0.34,1.49-0.34,1.65c0,0.1,0.03,0.14,0.08,0.14c0.06,0,0.11-0.03,0.16-0.16c0.05-0.11,0.09-0.22,0.27-0.49
		c0.25-0.38,0.63-0.49,1.6-0.51l2.32-0.03v6.71c0,1.52,0,2.78-0.08,3.44c-0.06,0.46-0.14,0.81-0.45,0.87
		c-0.14,0.03-0.33,0.06-0.47,0.06c-0.09,0-0.13,0.05-0.13,0.1c0,0.1,0.08,0.13,0.25,0.13c0.47,0,1.45-0.05,1.53-0.05
		c0.08,0,1.06,0.05,1.92,0.05c0.17,0,0.25-0.05,0.25-0.13c0-0.05-0.03-0.1-0.13-0.1c-0.14,0-0.48-0.03-0.7-0.06
		c-0.47-0.06-0.56-0.41-0.61-0.87c-0.08-0.67-0.08-1.92-0.08-3.44V0.9L220.92,0.9z"/>
	<path class="st2" d="M229.96,9.47c0,0.25,0,0.92-0.05,1.59c-0.03,0.46-0.17,0.81-0.49,0.87c-0.14,0.03-0.33,0.06-0.47,0.06
		c-0.09,0-0.13,0.05-0.13,0.1c0,0.1,0.08,0.13,0.25,0.13c0.47,0,1.46-0.05,1.53-0.05s1.06,0.05,1.92,0.05
		c0.17,0,0.25-0.05,0.25-0.13c0-0.05-0.03-0.1-0.13-0.1c-0.14,0-0.48-0.03-0.7-0.06c-0.47-0.06-0.61-0.41-0.64-0.87
		c-0.05-0.67-0.05-1.33-0.05-1.59V8.11c0-0.52,0-1.02,0.24-1.59c0.28-0.68,2.47-4.41,2.99-5.05c0.34-0.43,0.52-0.62,0.83-0.81
		c0.25-0.16,0.55-0.22,0.72-0.22c0.13,0,0.2-0.05,0.2-0.13c0-0.06-0.09-0.1-0.2-0.1c-0.3,0-1.42,0.05-1.52,0.05
		c-0.13,0-0.63-0.05-1.03-0.05c-0.16,0-0.25,0.03-0.25,0.1c0,0.08,0.1,0.11,0.24,0.16c0.19,0.05,0.25,0.22,0.25,0.44
		c0,0.21-0.06,0.48-0.27,0.81c-0.31,0.52-2.3,4-2.6,4.67c-0.28-0.46-2.63-4.55-2.88-5.01c-0.13-0.24-0.2-0.43-0.2-0.62
		c0-0.13,0.08-0.22,0.2-0.29c0.14-0.06,0.23-0.08,0.23-0.14c0-0.06-0.03-0.11-0.2-0.11c-0.61,0-1.2,0.05-1.31,0.05
		c-0.08,0-1.25-0.05-1.55-0.05c-0.14,0-0.2,0.05-0.2,0.11c0,0.08,0.08,0.11,0.16,0.11c0.14,0,0.44,0.1,0.67,0.25
		c0.28,0.19,0.67,0.59,1.06,1.17c0.55,0.83,2.64,4.32,2.75,4.57c0.2,0.46,0.36,0.81,0.36,1.67V9.47L229.96,9.47L229.96,9.47z"/>
</g>
<g id="Logo">
	<path class="st2" d="M5.48,28.9l0.26-0.07c1.47-0.4,2.52-1.29,2.33-1.99c-0.18-0.7-1.53-0.94-3-0.54l-0.26,0.07
		c-1.47,0.4-2.52,1.29-2.33,1.99C2.66,29.06,4,29.3,5.48,28.9L5.48,28.9L5.48,28.9z M3.11,9.14l3.42,1.85
		c1.35,0.73,2.79,0.63,3.24-0.22c0.44-0.85-0.29-2.12-1.63-2.85L4.72,6.08C3.37,5.35,1.92,5.45,1.48,6.3
		C1.03,7.14,1.77,8.42,3.11,9.14L3.11,9.14L3.11,9.14z M12.97,4.3l0.84,1.82c0.64,1.4,1.84,2.22,2.66,1.83
		c0.83-0.39,0.97-1.84,0.33-3.24l-0.84-1.82c-0.64-1.4-1.84-2.22-2.66-1.83C12.47,1.45,12.32,2.9,12.97,4.3L12.97,4.3L12.97,4.3z
		 M36.75,5.29L33.7,7.71c-1.2,0.95-1.7,2.33-1.12,3.09c0.58,0.76,2.03,0.6,3.23-0.36l3.05-2.42c1.2-0.95,1.7-2.33,1.12-3.09
		C39.39,4.17,37.95,4.33,36.75,5.29L36.75,5.29L36.75,5.29z M38.22,14.83l-0.86,0.22c-1.48,0.37-2.52,1.32-2.33,2.1
		c0.19,0.79,1.55,1.12,3.03,0.75l0.86-0.22c1.48-0.37,2.52-1.32,2.33-2.1C41.05,14.79,39.7,14.46,38.22,14.83L38.22,14.83
		L38.22,14.83z M0.13,0.41h23.49l-0.2,2.8c-0.1,1.32,0.63,2.45,1.62,2.52c0.99,0.07,1.87-0.95,1.97-2.28l0.22-3.04h15.59v34.94
		c-4.5-1.39-12.49-3.73-16.14-4.02c0.5-2.56,2.45-7.48,3.62-9.99c1.64-3.51,2.79-5.94,3.44-7.29c-0.13-0.62-0.61-1.18-1.44-1.67
		c-0.8-0.48-1.63-0.78-2.5-0.9c-0.43-0.06-0.8-0.05-1.1,0.02c-1.15-1.47-2.55-2.32-4.2-2.53c-2.69-0.35-6.77,0.31-10.05,3.27
		c-3.9,3.51-6.78,11.84-3.62,16.33c3.17,3.67,8.95,1.92,11.25,0.54c-0.01,0.07-0.02,2.13-0.02,2.44c-1.85,0.5-4.7,1.38-6.8,2.62
		c-2.49,1.48-4.74,3.42-5.73,5.36c-1.84,3.59-0.58,5.99,1.66,7.48H0.13V19.58c0.33,0.18,0.75,0.29,1.21,0.28l2.69-0.05
		c1.06-0.02,1.9-0.65,1.89-1.4c-0.01-0.75-0.88-1.34-1.93-1.32L1.3,17.14c-0.44,0.01-0.85,0.12-1.17,0.31V0.41L0.13,0.41z
		 M26.26,13.82c3.14,2.31,1.21,6.5-1.14,9.8c-2.74,3.86-9.62,4.25-11.24,2.17c-1.37-1.76-0.94-6.69,1.65-9.69
		C18.26,12.99,22.06,11.2,26.26,13.82L26.26,13.82L26.26,13.82z M22.59,35.37c0.08,3.22,0.21,7.54-0.97,8.98
		c-1.52,1.82-3.49,2.39-5.91,1.7c-2.35-0.67-3.46-1.73-3.33-3.2C12.72,39.87,14.09,37.39,22.59,35.37L22.59,35.37L22.59,35.37z
		 M42.81,38.08v8.94H23.39c0.96-0.83,1.72-1.97,2.05-3.54c1.1-5.17,0.5-8.21,1.06-8.34C30.07,34.34,38.24,37.7,42.81,38.08
		L42.81,38.08L42.81,38.08z"/>
</g>
</svg>
